<svg xmlns="http://www.w3.org/2000/svg" width="16" height="16" viewBox="0 0 16 16">
  <g fill="none" fill-rule="evenodd">
    <polygon fill="#B99BF8" fill-opacity=".7" points="1 16 16 16 16 9 1 9"/>
    <path fill="#231F20" fill-opacity=".7" d="M0,2.501 C0,1 0.931,0 2.256,0 C3.20239258,0 3.55,0.311 3.969,0.753 L3.42669678,1.42712402 C3.07669678,1.06812402 2.75,1 2.25,1 C1.418,1 1,1.73791504 1,2.487 C1,3.23608496 1.412,4 2.25,4 C2.787,4 3.05169678,3.89340869 3.42669678,3.50640869 L4,4.144 C3.544,4.669 3.19732666,5 2.225,5 C0.949,5 0,4.002 0,2.501 Z" transform="translate(2 10)"/>
    <path fill="#231F20" fill-opacity=".7" d="M0.972767969,1.50152588 C0.972767969,1.13305664 1.284,1 1.845,1 C1.85033333,1 2.23533333,1 3,1 L3,0 C2.26266667,0 1.88266667,0 1.86,0 C0.778,0 0,0.45916748 0,1.45 C0,2.31452637 0.419555664,2.69049072 1.47125244,2.91607666 C2.24158869,3.08131157 2.496155,3.22862939 2.496155,3.548 C2.496155,3.86737061 2.13842773,4 1.47125244,4 C1.46058577,4 1.07016829,4 0.3,4 L0.3,5 C1.07550163,5 1.46591911,5 1.47125244,5 C3.5,5 3.5,4 3.5,3.548 C3.5,2.91607666 3.02026367,2.42071533 2.15869141,2.14685059 C1.29711914,1.87298584 0.972767969,1.86999512 0.972767969,1.50152588 Z" transform="translate(6.5 10)"/>
    <polygon fill="#231F20" fill-opacity=".7" points="11.1 10 12.496 13.5 13.9 10 15 10 12.89 15 12.109 15 10 10 11.1 10"/>
    <polygon fill="#9AA7B0" fill-opacity=".8" points="7 1 3 5 7 5"/>
    <polygon fill="#9AA7B0" fill-opacity=".8" points="8 1 8 6 3 6 3 8 13 8 13 1"/>
  </g>
  <g id="#000000ff">
    <path fill="#000000" opacity="1" d="m 15.130675,0.34234866 c 0.386319,-0.0968262 0.762858,0.3970851 0.525198,0.73646574 -0.297318,0.393173 -0.715913,0.6758276 -1.023989,1.0592196 0.089,0.3589416 0.342308,0.6699587 0.343286,1.0523736 0.08118,0.6758266 -0.05574,1.3897978 -0.498792,1.9208746 -0.489011,0.5829135 -1.06311,1.087583 -1.600044,1.6255059 C 12.67486,6.964672 12.27974,6.9372868 12.08707,6.7113597 11.166751,5.8047142 10.256212,4.8892665 9.344696,3.9738195 9.153982,3.8251568 9.13931,3.5601074 9.196036,3.3429824 9.43174,3.0300086 9.73786,2.7796302 10.001927,2.4911075 10.46453,2.0372957 10.893881,1.512087 11.502212,1.2489938 11.941345,1.0318684 12.447959,1.0572975 12.923279,1.0905509 13.282214,1.1169582 13.579532,1.346798 13.92184,1.4269974 14.359016,1.1052215 14.62895,0.56925447 15.130675,0.34234866 M 11.345729,2.5644605 C 11.021026,2.904819 10.674806,3.223661 10.352057,3.5649974 11.067971,4.2770125 11.785838,4.9890267 12.493927,5.7088659 12.86753,5.3518804 13.221575,4.9753345 13.594202,4.6163929 13.995191,4.2212638 14.108642,3.602163 13.946291,3.0749982 13.729169,2.4764364 13.121818,1.9981742 12.468499,2.049032 12.035234,2.02556 11.632289,2.2553994 11.345729,2.5644605 Z" id="path52" style="stroke-width:0.097803" />
    <path fill="#000000" opacity="1" d="M 8.543695,5.3372101 C 8.764729,5.0643366 9.296773,5.1269313 9.39751,5.4829381 9.43663,5.6550741 9.43858,5.8682869 9.29482,5.9944545 8.994566,6.3093837 8.666929,6.5979064 8.367655,6.9147924 8.611183,7.1886439 8.869379,7.4497813 9.145181,7.6923355 9.461083,7.3920766 9.751555,7.0663884 10.0655,6.7651515 c 0.272868,-0.2875446 0.871419,-0.069439 0.818604,0.3530734 0.04009,0.2396202 -0.160395,0.3941511 -0.308076,0.5447693 -0.248418,0.236686 -0.493902,0.4743508 -0.734494,0.7188612 0.16333,0.2161476 0.45478,0.3921949 0.451846,0.6924538 0.04303,0.3149292 -0.265044,0.4909773 -0.444022,0.698322 C 9.316336,10.281213 8.852753,10.878797 8.220952,11.273926 7.684018,11.613307 7.019941,11.635801 6.408674,11.547778 6.101577,11.491053 5.8424011,11.298377 5.5401923,11.230892 5.155829,11.537998 4.8741592,11.956599 4.4800162,12.253924 4.081961,12.534623 3.5254666,11.977138 3.8061589,11.580053 4.1015185,11.185902 4.5220681,10.906182 4.8272111,10.519856 4.7528818,10.201992 4.5494527,9.9252061 4.5025076,9.5985399 4.4291564,9.0019342 4.451651,8.358382 4.7841782,7.8380643 5.2047274,7.1671267 5.8472882,6.6820183 6.385199,6.1127971 6.539726,5.9797831 6.672739,5.7636366 6.900619,5.7685267 7.238036,5.7137577 7.445377,6.0335761 7.678147,6.2164696 7.974487,5.9308818 8.249311,5.6257327 8.543695,5.3372101 M 5.8678267,8.0424748 C 5.2976399,8.597025 5.2956839,9.6278812 5.8961902,10.16287 6.433123,10.76241 7.461026,10.761432 8.01752,10.191233 8.377432,9.8215338 8.752993,9.4674822 9.107036,9.0909355 8.394058,8.3789212 7.680103,7.6669062 6.96908,6.9529359 6.59254,7.3060086 6.239475,7.6835332 5.8678267,8.0424748 Z" id="path54" style="stroke-width:0.097803" />
  </g>
</svg>
