<?xml version="1.0" encoding="UTF-8" standalone="no"?>
<!-- Copyright 2000-2021 JetBrains s.r.o. and contributors. Use of this source code is governed by the Apache 2.0 license that can be found in the LICENSE file. -->

<svg
   width="16"
   height="16"
   viewBox="0 0 16 16"
   version="1.1"
   id="svg77"
   sodipodi:docname="multiconnectFunction.svg"
   inkscape:version="1.1.2 (1:1.1+202202050950+0a00cf5339)"
   xmlns:inkscape="http://www.inkscape.org/namespaces/inkscape"
   xmlns:sodipodi="http://sodipodi.sourceforge.net/DTD/sodipodi-0.dtd"
   xmlns="http://www.w3.org/2000/svg"
   xmlns:svg="http://www.w3.org/2000/svg">
  <defs
     id="defs81" />
  <sodipodi:namedview
     id="namedview79"
     pagecolor="#ffffff"
     bordercolor="#666666"
     borderopacity="1.0"
     inkscape:pageshadow="2"
     inkscape:pageopacity="0.0"
     inkscape:pagecheckerboard="0"
     showgrid="false"
     inkscape:zoom="50.4375"
     inkscape:cx="8"
     inkscape:cy="8"
     inkscape:window-width="1848"
     inkscape:window-height="1016"
     inkscape:window-x="72"
     inkscape:window-y="27"
     inkscape:window-maximized="1"
     inkscape:current-layer="svg77" />
  <g
     fill="none"
     fill-rule="evenodd"
     id="g72">
    <path
       fill="#F98B9E"
       fill-opacity=".6"
       d="M15,8 C15,11.866 11.866,15 8,15 C4.134,15 1,11.866 1,8 C1,4.134 4.134,1 8,1 C11.866,1 15,4.134 15,8"
       id="path68" />
    <path
       fill="#231F20"
       fill-opacity=".7"
       d="M6.9922,2 C6.9912,1.251 6.63513184,0.0003 4.98162842,0.0003 C4.11224365,0.0003 3.6576,0.502 3.5986,0.6 C3.28363037,0.194116211 2.94411621,0.0003 2.1,0.0003 C1.63194173,0.0003 1.26527507,0.0999436667 1,0.299231 L1,0.0003 L0,0.0003 L0,5.0003 L1,5.0003 C0.966666667,3.1563 0.966666667,2.1562 1,2 C1.05,1.7657 1.05,1 2,1 C2.95,1 2.999,1.537 3,2 L3,5.0003 L4,5.0003 L4,2 C4,1.686 3.95911952,1 4.98162842,1 C6.00413731,1 6.00413731,1.73961181 6.00469971,2 C6.00469971,2.79041884 6.00469971,3.38323296 6.00469971,3.77844238 C6.00469971,4.0499663 6.00469971,4.45725217 6.00469971,5.0003 L6.9972,5.0003 L6.9922,2 Z"
       transform="translate(5 6)"
       id="path70" />
  </g>
  <g
     id="#000000ff"
     transform="matrix(0.61940158,0,0,0.6015912,5.7127215,7.7894814)">
    <path
       fill="#000000"
       opacity="1"
       d="m 15.130675,0.34234866 c 0.386319,-0.0968262 0.762858,0.3970851 0.525198,0.73646574 -0.297318,0.393173 -0.715913,0.6758276 -1.023989,1.0592196 0.089,0.3589416 0.342308,0.6699587 0.343286,1.0523736 0.08118,0.6758266 -0.05574,1.3897978 -0.498792,1.9208746 -0.489011,0.5829135 -1.06311,1.087583 -1.600044,1.6255059 C 12.67486,6.964672 12.27974,6.9372868 12.08707,6.7113597 11.166751,5.8047142 10.256212,4.8892665 9.344696,3.9738195 9.153982,3.8251568 9.13931,3.5601074 9.196036,3.3429824 9.43174,3.0300086 9.73786,2.7796302 10.001927,2.4911075 10.46453,2.0372957 10.893881,1.512087 11.502212,1.2489938 11.941345,1.0318684 12.447959,1.0572975 12.923279,1.0905509 13.282214,1.1169582 13.579532,1.346798 13.92184,1.4269974 14.359016,1.1052215 14.62895,0.56925447 15.130675,0.34234866 M 11.345729,2.5644605 C 11.021026,2.904819 10.674806,3.223661 10.352057,3.5649974 11.067971,4.2770125 11.785838,4.9890267 12.493927,5.7088659 12.86753,5.3518804 13.221575,4.9753345 13.594202,4.6163929 13.995191,4.2212638 14.108642,3.602163 13.946291,3.0749982 13.729169,2.4764364 13.121818,1.9981742 12.468499,2.049032 12.035234,2.02556 11.632289,2.2553994 11.345729,2.5644605 Z"
       id="path52"
       style="stroke-width:0.097803" />
    <path
       fill="#000000"
       opacity="1"
       d="M 8.543695,5.3372101 C 8.764729,5.0643366 9.296773,5.1269313 9.39751,5.4829381 9.43663,5.6550741 9.43858,5.8682869 9.29482,5.9944545 8.994566,6.3093837 8.666929,6.5979064 8.367655,6.9147924 8.611183,7.1886439 8.869379,7.4497813 9.145181,7.6923355 9.461083,7.3920766 9.751555,7.0663884 10.0655,6.7651515 c 0.272868,-0.2875446 0.871419,-0.069439 0.818604,0.3530734 0.04009,0.2396202 -0.160395,0.3941511 -0.308076,0.5447693 -0.248418,0.236686 -0.493902,0.4743508 -0.734494,0.7188612 0.16333,0.2161476 0.45478,0.3921949 0.451846,0.6924538 0.04303,0.3149292 -0.265044,0.4909773 -0.444022,0.698322 C 9.316336,10.281213 8.852753,10.878797 8.220952,11.273926 7.684018,11.613307 7.019941,11.635801 6.408674,11.547778 6.101577,11.491053 5.8424011,11.298377 5.5401923,11.230892 5.155829,11.537998 4.8741592,11.956599 4.4800162,12.253924 4.081961,12.534623 3.5254666,11.977138 3.8061589,11.580053 4.1015185,11.185902 4.5220681,10.906182 4.8272111,10.519856 4.7528818,10.201992 4.5494527,9.9252061 4.5025076,9.5985399 4.4291564,9.0019342 4.451651,8.358382 4.7841782,7.8380643 5.2047274,7.1671267 5.8472882,6.6820183 6.385199,6.1127971 6.539726,5.9797831 6.672739,5.7636366 6.900619,5.7685267 7.238036,5.7137577 7.445377,6.0335761 7.678147,6.2164696 7.974487,5.9308818 8.249311,5.6257327 8.543695,5.3372101 M 5.8678267,8.0424748 C 5.2976399,8.597025 5.2956839,9.6278812 5.8961902,10.16287 6.433123,10.76241 7.461026,10.761432 8.01752,10.191233 8.377432,9.8215338 8.752993,9.4674822 9.107036,9.0909355 8.394058,8.3789212 7.680103,7.6669062 6.96908,6.9529359 6.59254,7.3060086 6.239475,7.6835332 5.8678267,8.0424748 Z"
       id="path54"
       style="stroke-width:0.097803" />
  </g>
</svg>
